<?xml version="1.0" encoding="UTF-8"?>
<!DOCTYPE svg PUBLIC "-//W3C//DTD SVG 1.1//EN" "http://www.w3.org/Graphics/SVG/1.1/DTD/svg11.dtd">
<!-- Creator: CorelDRAW 2017 -->
<svg xmlns="http://www.w3.org/2000/svg" xml:space="preserve" width="15.1695mm" height="16.5806mm" version="1.1" style="shape-rendering:geometricPrecision; text-rendering:geometricPrecision; image-rendering:optimizeQuality; fill-rule:evenodd; clip-rule:evenodd"
viewBox="0 0 150.9 164.93"
 xmlns:xlink="http://www.w3.org/1999/xlink">
 <defs>
  <style type="text/css">
   <![CDATA[
    .fil0 {fill:#5B5857;fill-rule:nonzero}
   ]]>
  </style>
 </defs>
 <g id="Слой_x0020_1">
  <metadata id="CorelCorpID_0Corel-Layer"/>
  <polygon class="fil0" points="115.81,94.75 115.81,38.6 122.82,38.6 122.82,94.75 "/>
  <polygon class="fil0" points="108.79,38.6 108.79,94.75 101.77,94.75 101.77,38.6 "/>
  <path class="fil0" d="M108.6 95.85l-3.32 9.95 0 45.1c0,0.68 -0.19,1.31 -0.53,1.85l-2.58 5.17 20.26 0 -2.73 -5.46c-0.25,-0.5 -0.37,-1.04 -0.37,-1.56l-0.01 0 0 -45.1 -2.51 -7.54 -4.51 0 0 -7.02 7.02 0 0 0.01c1.47,0 2.83,0.93 3.32,2.4l3.4 10.2c0.19,0.43 0.3,0.92 0.3,1.42l0 44.83 2.98 5.96c0.33,0.54 0.53,1.17 0.53,1.85l0 3.51c0,1.94 -1.57,3.51 -3.51,3.51l-28.07 0c-1.94,0 -3.51,-1.57 -3.51,-3.51l0 -3.51 0.01 0c-0,-0.53 0.12,-1.06 0.37,-1.56l3.13 -6.25 0 -44.83 0.01 0c-0,-0.36 0.06,-0.73 0.18,-1.1l3.51 -10.53 6.63 2.19z"/>
  <path class="fil0" d="M140.37 35.09c-2.47,0 -3.93,-1.62 -5.69,-3.58 -1.36,-1.52 -3.09,-3.44 -4.84,-3.44 -1.44,0 -3.42,0.77 -4.9,2.75 -1.24,1.65 -2.11,4.15 -2.11,7.78 0,1.94 -1.57,3.51 -3.51,3.51l-14.04 0c-1.83,0 -3.33,-1.39 -3.49,-3.18 -0.15,-1.05 -1.65,-10.86 -7.03,-10.86 -9.82,0 -10.7,1.04 -12.48,3.15 -0.73,0.86 -1.55,1.84 -2.65,2.89 -1.35,1.29 -3.47,1.28 -4.81,0.01 -0.78,-0.7 -5.17,-4.66 -7.35,-7.39 -1.05,-1.32 -1,-3.16 0.04,-4.41l0.41 -0.49c12.28,-14.78 18.14,-21.84 33.86,-21.84l14.04 0c3.84,0 6.64,2.19 9.4,4.35 1.72,1.35 3.42,2.67 4.64,2.67 1.79,0 3.29,-1.33 4.78,-2.65 2.48,-2.19 4.94,-4.37 9.26,-4.37l3.51 0c1.94,0 3.51,1.57 3.51,3.51l0 28.07c0,1.94 -1.57,3.51 -3.51,3.51l-7.02 0zm-0.48 -8.27c0.61,0.68 -0.16,1.25 0.48,1.25l3.51 0 0 -21.06c-1.7,0 -3.16,1.29 -4.62,2.59 -2.49,2.21 -5,4.43 -9.41,4.43 -3.6,0 -6.26,-2.08 -8.95,-4.18 -1.8,-1.41 -3.62,-2.84 -5.09,-2.84l-14.04 0c-11.87,0 -17.13,5.65 -26.97,17.46 0.72,0.74 1.49,1.49 2.2,2.16 3.16,-3.74 4.81,-5.59 17.75,-5.59 8.67,0 12.14,9.11 13.39,14.04l7.9 0c0.49,-3.57 1.72,-6.35 3.31,-8.47 3.01,-4.01 7.31,-5.57 10.5,-5.57 4.87,0 7.76,3.22 10.05,5.77z"/>
  <polygon class="fil0" points="28.07,150.9 28.07,140.37 35.09,140.37 35.09,150.9 "/>
  <path class="fil0" d="M30.2 157.78c0.42,-0.18 0.89,-0.28 1.38,-0.28 2.01,0 3.81,-0.73 5.08,-1.94 1.2,-1.15 1.94,-2.78 1.94,-4.66l0 -91.24c0,-1.53 0.98,-2.84 2.35,-3.31 4.65,-1.91 8.57,-4.82 11.25,-8.58 2.49,-3.48 3.94,-7.75 3.94,-12.67 0,-5.08 -1.54,-9.8 -4.17,-13.71 -1.7,-2.53 -3.87,-4.72 -6.36,-6.46l-0 20.17c0,1.93 -1.57,3.5 -3.5,3.5l0 0.01 -21.06 0c-1.94,0 -3.51,-1.57 -3.51,-3.51l0 -20.16c-2.49,1.74 -4.65,3.93 -6.35,6.46 -2.63,3.91 -4.17,8.63 -4.17,13.71 0,4.92 1.45,9.19 3.94,12.67 2.71,3.8 6.69,6.73 11.42,8.64 1.36,0.55 2.19,1.86 2.19,3.25l0 91.24c0,1.94 0.79,3.7 2.05,4.96l0.14 0.14c0.94,0.88 2.12,1.51 3.45,1.78zm11.31 2.82c-2.14,2.05 -4.95,3.41 -8.07,3.8 -0.54,0.34 -1.17,0.53 -1.86,0.53 -3.76,0 -7.19,-1.49 -9.71,-3.91l-0.22 -0.2c-2.54,-2.54 -4.11,-6.05 -4.11,-9.93l0 -88.96c-4.97,-2.39 -9.22,-5.81 -12.29,-10.11 -3.32,-4.65 -5.25,-10.28 -5.25,-16.73 0,-6.52 1.98,-12.59 5.38,-17.63 3.28,-4.87 7.89,-8.78 13.31,-11.2 0.62,-0.57 1.45,-0.92 2.36,-0.92 1.94,0 3.51,1.57 3.51,3.51l0 22.73 14.05 0 0 -22.25c-0.04,-0.52 0.04,-1.06 0.25,-1.58 0.73,-1.79 2.77,-2.66 4.56,-1.93 5.87,2.38 10.86,6.47 14.36,11.65 3.4,5.04 5.38,11.11 5.38,17.63 0,6.45 -1.93,12.08 -5.25,16.73 -3.08,4.31 -7.32,7.72 -12.29,10.11l0 88.96c0,3.87 -1.57,7.26 -4.11,9.7z"/>
 </g>
</svg>
