<?xml version="1.0" encoding="UTF-8"?>
<!DOCTYPE svg PUBLIC "-//W3C//DTD SVG 1.1//EN" "http://www.w3.org/Graphics/SVG/1.1/DTD/svg11.dtd">
<!-- Creator: CorelDRAW 2017 -->
<svg xmlns="http://www.w3.org/2000/svg" xml:space="preserve" width="14.1104mm" height="16.579mm" version="1.1" style="shape-rendering:geometricPrecision; text-rendering:geometricPrecision; image-rendering:optimizeQuality; fill-rule:evenodd; clip-rule:evenodd"
viewBox="0 0 155.91 183.18"
 xmlns:xlink="http://www.w3.org/1999/xlink">
 <defs>
  <style type="text/css">
   <![CDATA[
    .fil0 {fill:#5B5857;fill-rule:nonzero}
   ]]>
  </style>
 </defs>
 <g id="Слой_x0020_1">
  <metadata id="CorelCorpID_0Corel-Layer"/>
  <path class="fil0" d="M38.55 157.65l-11.69 23.39c-0.96,1.92 -3.29,2.69 -5.21,1.74 -0.78,-0.39 -1.37,-1.01 -1.74,-1.74l-11.69 -23.39 6.94 -3.47 8.22 16.44 8.22 -16.44 6.94 3.47z"/>
  <path class="fil0" d="M68.23 8.3l11.48 -7.65c1.36,-0.9 3.07,-0.83 4.34,0.03l11.65 7.77c1.13,0.75 1.74,1.98 1.74,3.24l0.01 16.17c0,1.21 -0.55,2.28 -1.41,3l-11.5 10.93c-1.53,1.46 -3.94,1.42 -5.43,-0.07l-11.7 -11.69c-0.76,-0.76 -1.14,-1.76 -1.14,-2.76l-0 -15.59c0,-1.45 0.79,-2.71 1.96,-3.38zm13.63 0.26l-7.8 5.2 0 11.9 7.87 7.87 7.72 -7.34 0 -12.44 -7.8 -5.2z"/>
  <path class="fil0" d="M109.14 62.36c0,7.53 -3.06,14.34 -7.99,19.28l0 0.01c-4.94,4.94 -11.76,7.99 -19.29,7.99 -7.53,0 -14.36,-3.06 -19.29,-7.99l-0.21 -0.23c-4.81,-4.92 -7.78,-11.65 -7.78,-19.06 0,-7.53 3.06,-14.36 7.99,-19.3l0.23 -0.21c4.93,-4.82 11.66,-7.79 19.07,-7.79 7.52,0 14.34,3.06 19.28,7.99l0.01 0c4.94,4.94 7.99,11.76 7.99,19.29zm-13.5 13.79c3.52,-3.52 5.7,-8.4 5.7,-13.79 0,-5.38 -2.18,-10.26 -5.71,-13.78 -3.52,-3.53 -8.39,-5.71 -13.78,-5.71 -5.3,0 -10.1,2.11 -13.61,5.52l-0.17 0.19c-3.53,3.53 -5.71,8.4 -5.71,13.78 0,5.3 2.1,10.1 5.52,13.61l0.19 0.18c3.52,3.52 8.4,5.71 13.78,5.71 5.38,0 10.26,-2.18 13.79,-5.7z"/>
  <polygon class="fil0" points="85.75,101.34 85.75,136.42 77.96,136.42 77.96,101.34 "/>
  <path class="fil0" d="M147.74 79.61c-6,12.62 -15.28,23.03 -26.79,30.23 -11.23,7.02 -24.58,10.99 -39.09,10.99 -14.51,0 -27.86,-3.97 -39.09,-10.99 -11.52,-7.2 -20.79,-17.6 -26.79,-30.23l7.03 -3.32c5.35,11.25 13.61,20.53 23.87,26.94 10.02,6.26 21.96,9.8 34.98,9.8 13.01,0 24.96,-3.54 34.98,-9.8 10.26,-6.41 18.52,-15.68 23.87,-26.94l7.03 3.32z"/>
  <path class="fil0" d="M46.78 140.32c0,6.46 -2.62,12.3 -6.85,16.54 -4.23,4.23 -10.08,6.85 -16.54,6.85 -6.46,0 -12.3,-2.62 -16.54,-6.85l-0.21 -0.23c-4.11,-4.22 -6.64,-9.97 -6.64,-16.3 0,-6.46 2.62,-12.31 6.85,-16.54 4.23,-4.23 10.08,-6.85 16.54,-6.85 6.46,0 12.31,2.62 16.54,6.85 4.23,4.23 6.85,10.08 6.85,16.54zm-12.36 11.02c2.82,-2.82 4.57,-6.72 4.57,-11.02 0,-4.31 -1.75,-8.21 -4.57,-11.03 -2.82,-2.82 -6.72,-4.57 -11.03,-4.57 -4.31,0 -8.21,1.75 -11.03,4.57 -2.82,2.82 -4.57,6.72 -4.57,11.03 0,4.23 1.67,8.05 4.38,10.85l0.19 0.17c2.82,2.82 6.72,4.57 11.02,4.57 4.3,0 8.21,-1.75 11.02,-4.57z"/>
  <path class="fil0" d="M107.56 67.7l47.89 90.29c0.69,1.31 0.56,2.84 -0.21,3.98l-11.59 19.31c-1.1,1.84 -3.49,2.44 -5.33,1.34 -0.64,-0.38 -1.12,-0.91 -1.44,-1.52l-50.39 -94.97 6.88 -3.62 47.15 88.88 7.02 -11.7 -46.87 -88.37 6.88 -3.62z"/>
  <polygon class="fil0" points="38.19,131.33 67.22,80.92 73.95,84.79 44.92,135.2 "/>
  <polygon class="fil0" points="61.83,66.83 29.51,122.96 22.77,119.09 55.1,62.97 "/>
 </g>
</svg>
