<?xml version="1.0" encoding="UTF-8"?>
<!DOCTYPE svg PUBLIC "-//W3C//DTD SVG 1.1//EN" "http://www.w3.org/Graphics/SVG/1.1/DTD/svg11.dtd">
<!-- Creator: CorelDRAW 2017 -->
<svg xmlns="http://www.w3.org/2000/svg" xml:space="preserve" width="37.8525mm" height="42.5497mm" version="1.1" style="shape-rendering:geometricPrecision; text-rendering:geometricPrecision; image-rendering:optimizeQuality; fill-rule:evenodd; clip-rule:evenodd"
viewBox="0 0 608.5 684.01"
 xmlns:xlink="http://www.w3.org/1999/xlink">
 <defs>
  <style type="text/css">
   <![CDATA[
    .fil0 {fill:#2B2A29;fill-rule:nonzero}
   ]]>
  </style>
 </defs>
 <g id="Слой_x0020_1">
  <metadata id="CorelCorpID_0Corel-Layer"/>
  <path class="fil0" d="M303.29 40.41l0.02 0 0 0.06c41.8,-0.22 101.34,1.84 151.4,12.74 55.25,12.03 100.02,35.21 104.22,78.38 1.47,15.16 2.04,30.43 1.81,45.75 -1.75,113.33 -48.12,227.14 -101.44,313.28 -54.58,88.16 -118.74,148.49 -151.93,151.78 -1.3,0.14 -2.65,0.19 -4.02,0.18l-0.02 0 0 0.06 -0.02 0 0 -0.06 -0.02 0c-1.38,0.01 -2.72,-0.05 -4.02,-0.17 -33.19,-3.3 -97.35,-63.63 -151.93,-151.79 -53.33,-86.13 -99.69,-199.95 -101.45,-313.28 -0.23,-15.31 0.34,-30.59 1.81,-45.75 4.19,-43.17 48.96,-66.35 104.22,-78.38 50.06,-10.9 109.59,-12.96 151.4,-12.74l0 -0.06zm0.02 32.15l-0.09 -0.06c-39.99,-0.21 -96.92,1.75 -144.55,12.11 -42.46,9.24 -76.63,24.59 -79.1,50 -1.37,14.09 -1.9,28.23 -1.68,42.35 1.65,106.69 45.84,214.72 96.67,296.83 49.55,80.03 103.11,134.32 127.76,136.72l0.71 0.04c0.32,-0.08 0.2,-0.08 0.52,0l0.71 -0.04c24.65,-2.4 78.21,-56.69 127.76,-136.72 50.83,-82.1 95.02,-190.13 96.67,-296.83 0.22,-14.13 -0.32,-28.27 -1.68,-42.35 -2.47,-25.41 -36.63,-40.75 -79.1,-50 -47.63,-10.37 -104.56,-12.33 -144.55,-12.11l-0.06 0.06z"/>
  <path class="fil0" d="M303.45 0l0.03 0 0 0.06c58.5,-0.29 144.57,3.37 208.37,23.08 48.04,14.84 84.34,39.06 91.01,77.84 4.94,28.74 6.51,58.39 5.23,88.36 -4.87,114.13 -51.25,232.5 -108.42,324.29 -58.24,93.5 -129.01,160.47 -180.39,169.31 -4.88,0.84 -9.72,1.19 -14.49,1.03l0 0.04c-3.66,0 -7.55,-0.29 -11.63,-0.87 -58.7,-8.25 -132.97,-81.35 -191.67,-181.81 -57.61,-98.6 -101.48,-224.51 -101.48,-341.04 0,-19.76 1.29,-39.42 4.01,-58.82 5.5,-39.14 41.52,-63.51 89.69,-78.39 64.02,-19.78 151.15,-23.33 209.75,-23.03l0 -0.06zm0.03 32.15l-0.03 0 -0.06 -0.06c-56.4,-0.29 -140.02,3.04 -200.26,21.65 -36.74,11.35 -63.93,27.94 -67.33,52.14 -2.47,17.58 -3.64,35.78 -3.64,54.42 0,110.48 41.97,230.5 97.09,324.84 54.04,92.48 119.41,159.36 168.31,166.23 2.32,0.33 4.73,0.49 7.24,0.49l0.63 0.06c2.56,0.11 5.39,-0.11 8.46,-0.63 42.67,-7.34 104.91,-68.5 158.53,-154.61 54.69,-87.81 99.04,-200.57 103.65,-308.59 1.18,-27.66 -0.27,-55.07 -4.85,-81.7 -4.21,-24.44 -31.81,-41.17 -68.78,-52.59 -60.03,-18.55 -142.6,-21.99 -198.88,-21.7l-0.06 0.06z"/>
  <path class="fil0" d="M196.07 291.75l28.87 -27.43c5.75,-5.47 13.2,-8.08 20.56,-7.89 7.4,0.19 14.73,3.18 20.19,8.92l28.32 29.81 73.61 -69.93 -0.02 -0.02 0.32 -0.26c5.75,-5.46 13.2,-8.08 20.56,-7.89 7.28,0.18 14.48,3.08 19.9,8.63l0.03 -0.03 0.26 0.32 27.15 28.58 0.02 -0.02 0.26 0.32c5.46,5.75 8.08,13.2 7.89,20.56 -0.19,7.28 -3.08,14.48 -8.63,19.9l0.03 0.03 -0.32 0.26c-36.29,34.47 -87.84,91.26 -126.44,119.79l-0.19 0.19 -0.26 0.19 -0.25 0.13 -1.03 0.73 -0.32 0.13c-0.7,0.43 -1.37,0.87 -2.11,1.24l-0.38 0.13c-0.93,0.45 -1.79,0.77 -2.72,1.19 -0.45,0.16 -0.82,0.26 -1.28,0.45 -1.2,0.36 -2.39,0.59 -3.62,0.81l-0.44 0.13 -0.3 0.05 -0.38 0c-3.88,0.49 -5.83,-0.13 -9.32,-0.13l-1.34 -0.38 -0.67 0 -0.86 -0.34 -2.42 -0.49 -0.11 -0.11 -0.07 0 -1.07 -0.65 -0.54 -0.17 -0.18 -0.18 -0.93 -0.31 -0.78 0 -0.46 -0.41 -5.41 -1.8 0 -1.49 -1.71 -0.85 0 -0.36 -0.28 -0.15 0 -1.22 -1.33 -0.95 0 -1.03 -1 -0.89 0 -0.08 -0.24 -0.22 0 -0.52 -0.47 -0.47 0 -0.17 -71.13 -74.88c-5.46,-5.75 -8.08,-13.2 -7.89,-20.56 0.19,-7.41 3.18,-14.73 8.92,-20.19zm48.61 -1.95l-24.16 22.96 71.12 74.87 118.97 -113.02 -22.95 -24.16 -94.81 90.06 -48.17 -50.7z"/>
 </g>
</svg>
