<?xml version="1.0" encoding="UTF-8"?>
<!DOCTYPE svg PUBLIC "-//W3C//DTD SVG 1.1//EN" "http://www.w3.org/Graphics/SVG/1.1/DTD/svg11.dtd">
<!-- Creator: CorelDRAW 2017 -->
<svg xmlns="http://www.w3.org/2000/svg" xml:space="preserve" width="43.3625mm" height="42.612mm" version="1.1" style="shape-rendering:geometricPrecision; text-rendering:geometricPrecision; image-rendering:optimizeQuality; fill-rule:evenodd; clip-rule:evenodd"
viewBox="0 0 8917.15 8762.82"
 xmlns:xlink="http://www.w3.org/1999/xlink">
 <defs>
  <style type="text/css">
   <![CDATA[
    .fil1 {fill:#2B2A29}
    .fil0 {fill:#2B2A29;fill-rule:nonzero}
   ]]>
  </style>
 </defs>
 <g id="Слой_x0020_1">
  <metadata id="CorelCorpID_0Corel-Layer"/>
  <path class="fil0" d="M4068.03 1601.46l-4.44 -1093.32 10.59 -31.75c0.45,-1.38 154.23,-489.45 635.25,-476.1 247.74,6.87 576.31,194.66 802.02,609.83 154.11,283.48 266,679.26 272.27,1202.22 9.48,790.28 -355.21,1501.6 -609.87,1900.65l3038.26 0 18.26 3.21c1.99,0.35 705.27,120.42 686.39,756.7 -9.48,319.61 -204.84,528.91 -387.64,655.46 101.67,120.67 185.69,295.75 169.96,539.73 -18.84,291.95 -192.34,498.78 -350.72,628.48 90.09,116.23 164.1,288.95 151.23,538.95 -16.16,313.75 -193.49,531.69 -347.84,663.44 96.63,126.94 188.76,312.47 180.06,553.07 -18.78,519.1 -551.41,698.2 -552.91,698.73l-33.75 12.05 -4853.62 0 -29.24 -8.84c-2.1,-0.62 -733.36,-212.14 -891.27,-1128.01l-1.97 -11.41c-142.06,-823.84 -437.07,-2534.64 310.75,-3420.24 613.82,-726.9 1602.3,-2295.46 1788.24,-2592.86zm405.55 -1023.36l4.61 1141.44 -30.74 49.48c-3.31,5.33 -1154.82,1861.94 -1854.38,2690.37 -623.9,738.85 -350.7,2323.14 -219.15,3086.07l1.97 11.41c98.71,572.49 478.36,755.43 580.05,794.66l4714.61 0c71.01,-31.71 244.88,-128.05 251.58,-313.97 9.4,-260.22 -200.93,-396.35 -201.53,-396.75l-307.13 -199.97 331.23 -157.48c0.93,-0.43 328.94,-152.75 345.21,-468.74 14.74,-286.21 -159.29,-345.27 -159.76,-345.44l-486.43 -176.87 475.18 -204.7c0.99,-0.41 351.48,-150.24 370.51,-445.24 17.48,-271.16 -212.18,-357.94 -212.82,-358.19l-550.67 -211.79 562.72 -175.39c1.17,-0.35 409.25,-125.36 418.44,-435.34 7.26,-244.67 -263.41,-321.81 -331.84,-337.4l-3836.46 0 280.08 -336.57c2.18,-2.63 767.87,-913.01 755.18,-1970.54 -5.39,-448.69 -96.75,-779.77 -222.46,-1011.02 -147.34,-271.04 -328.08,-392.69 -453.38,-396.17 -132.5,-3.68 -200.38,113.84 -224.62,168.13z"/>
  <path class="fil0" d="M2327.52 8386.53l-1403.2 0 -46.78 -25.71c-2.57,-1.4 -906.16,-474.91 -876.82,-2187.23 28.58,-1668.23 743.38,-2403.11 745.41,-2405.25l60.95 -64.26 1846.91 0 0 411.28 -1664.49 0c-149.09,193.14 -557.99,832.99 -579.11,2064.65 -21.39,1248.16 477.07,1691.65 624.31,1795.23l1292.81 0 0 411.28z"/>
  <circle class="fil1" cx="1284.67" cy="7319.4" r="244.84"/>
 </g>
</svg>
