<?xml version="1.0" encoding="UTF-8"?>
<!DOCTYPE svg PUBLIC "-//W3C//DTD SVG 1.1//EN" "http://www.w3.org/Graphics/SVG/1.1/DTD/svg11.dtd">
<!-- Creator: CorelDRAW 2017 -->
<svg xmlns="http://www.w3.org/2000/svg" xml:space="preserve" width="16.1434mm" height="16.2262mm" version="1.1" style="shape-rendering:geometricPrecision; text-rendering:geometricPrecision; image-rendering:optimizeQuality; fill-rule:evenodd; clip-rule:evenodd"
viewBox="0 0 1539.15 1547.05"
 xmlns:xlink="http://www.w3.org/1999/xlink">
 <defs>
  <style type="text/css">
   <![CDATA[
    .fil0 {fill:#5B5857;fill-rule:nonzero}
   ]]>
  </style>
 </defs>
 <g id="Слой_x0020_1">
  <metadata id="CorelCorpID_0Corel-Layer"/>
  <path class="fil0" d="M1463.81 245.38l-139.44 139.47 -170.13 -170.12 139.4 -139.44c-28.51,-7.41 -58.29,-10 -86.98,-6.86 -38.9,4.26 -75.65,19.23 -103.71,47.31l-40.96 40.93c-29.22,29.34 -45.19,61.16 -50.69,94.18 -6.26,37.68 0.65,78.1 16.74,119.04l8.04 20.47 -651.01 651.11 -20.26 -7.6c-39.89,-14.95 -79.24,-21 -115.94,-14.43 -32.24,5.78 -63.36,21.72 -92.13,50.48l-40.87 40.87c-28.16,28.16 -43.17,64.91 -47.42,103.74 -3.14,28.68 -0.54,58.48 6.86,86.97l139.37 -139.35 170.12 170.17 -139.4 139.36c28.54,7.44 58.36,10.05 87.08,6.9 38.82,-4.24 75.57,-19.25 103.74,-47.42l40.9 -40.9c28.75,-28.75 44.69,-59.87 50.47,-92.09 6.58,-36.66 0.56,-75.97 -14.38,-115.84l-7.59 -20.25 654.02 -654.14 19.96 7.09c38.79,13.8 77.01,18.96 112.69,12.08 31.64,-6.1 62.14,-21.97 90.25,-50.06l40.74 -40.87c28.16,-28.16 43.18,-64.92 47.42,-103.75 3.15,-28.72 0.53,-58.54 -6.9,-87.07zm-139.31 44.47l162.62 -162.65 20.47 42.87c24.69,51.75 36.14,112.09 29.87,169.48 -5.85,53.5 -26.91,104.51 -66.61,144.22l-40.99 40.87c-38.19,38.17 -80.45,59.89 -124.94,68.47 -41.56,8.02 -84.41,4.37 -127.2,-8.09l-594.6 594.69c13.58,43.77 18.07,87.71 10.42,130.32 -8.2,45.66 -29.98,88.93 -68.88,127.83l-40.9 40.9c-39.7,39.7 -90.71,60.75 -144.21,66.61 -57.37,6.27 -117.72,-5.18 -169.49,-29.87l-42.88 -20.45 162.73 -162.7 -75.14 -75.16 -162.76 162.75 -20.49 -42.96c-24.68,-51.76 -36.12,-112.12 -29.83,-169.49 5.86,-53.51 26.92,-104.52 66.61,-144.21l40.87 -40.87c38.93,-38.93 82.2,-60.7 127.86,-68.88 42.67,-7.65 86.62,-3.14 130.41,10.46l590.48 -590.56c-14.74,-44.82 -20.14,-89.84 -12.86,-133.58 7.76,-46.61 29.62,-90.84 69.42,-130.64l41.03 -40.86c39.75,-39.71 90.7,-60.77 144.05,-66.62 57.36,-6.28 117.73,5.15 169.49,29.84l42.95 20.5 -162.65 162.68 75.14 75.13z"/>
 </g>
</svg>
