<?xml version="1.0" encoding="UTF-8"?>
<!DOCTYPE svg PUBLIC "-//W3C//DTD SVG 1.1//EN" "http://www.w3.org/Graphics/SVG/1.1/DTD/svg11.dtd">
<!-- Creator: CorelDRAW 2017 -->
<svg xmlns="http://www.w3.org/2000/svg" xml:space="preserve" width="16.2664mm" height="16.4496mm" version="1.1" style="shape-rendering:geometricPrecision; text-rendering:geometricPrecision; image-rendering:optimizeQuality; fill-rule:evenodd; clip-rule:evenodd"
viewBox="0 0 360.21 364.27"
 xmlns:xlink="http://www.w3.org/1999/xlink">
 <defs>
  <style type="text/css">
   <![CDATA[
    .fil0 {fill:#5B5857;fill-rule:nonzero}
   ]]>
  </style>
 </defs>
 <g id="Слой_x0020_1">
  <metadata id="CorelCorpID_0Corel-Layer"/>
  <path class="fil0" d="M13.59 358.55l-8.38 -8.39c-4.09,-4.16 -5.74,-9.81 -5.08,-15.62 0.59,-5.19 3.09,-10.57 7.36,-14.89 68.73,-70.05 143.18,-153 214.3,-218.38 4.21,-4.02 9.38,-6.41 14.4,-7.02 5.86,-0.72 11.58,0.91 15.79,5.05 2.81,2.95 5.91,5.88 8.81,8.78 4.16,4.16 5.82,9.86 5.15,15.73 -0.59,5.19 -3.1,10.56 -7.36,14.9 -71.22,72.58 -142.08,146.16 -213.94,218.03 -4.29,4.24 -9.62,6.75 -14.79,7.38 -5.84,0.71 -11.55,-0.92 -15.75,-5.05l-0.51 -0.51zm2.74 -19.3l8.75 8.73c0.61,0.58 1.69,0.78 2.93,0.62 1.88,-0.23 3.92,-1.24 5.67,-2.96l213.78 -217.87c1.74,-1.77 2.75,-3.84 2.97,-5.74 0.14,-1.23 -0.08,-2.3 -0.7,-2.91l-8.75 -8.75c-0.61,-0.59 -1.68,-0.78 -2.91,-0.63l-0.03 0c-1.79,0.22 -3.72,1.14 -5.41,2.71 -69.4,73.51 -143.08,145.81 -214.04,218.12 -1.74,1.76 -2.75,3.83 -2.97,5.74 -0.14,1.24 0.07,2.31 0.67,2.91l0.03 0.03z"/>
  <polygon class="fil0" points="266.47,178.56 266.47,194.18 250.84,194.18 250.84,178.56 "/>
  <polygon class="fil0" points="266.47,209.81 266.47,225.43 250.84,225.43 250.84,209.81 "/>
  <polygon class="fil0" points="250.84,209.81 235.22,209.81 235.22,194.18 250.84,194.18 "/>
  <polygon class="fil0" points="282.09,209.81 266.47,209.81 266.47,194.18 282.09,194.18 "/>
  <path class="fil0" d="M219.25 19.9c32.54,3.81 61.41,19.61 82.06,42.85 20.43,23 32.85,53.27 32.85,86.43 0,35.94 -14.58,68.49 -38.13,92.05 -23.56,23.56 -56.11,38.13 -92.06,38.13l0 -15.63c31.64,0 60.28,-12.82 81.01,-33.55 20.73,-20.73 33.55,-49.37 33.55,-81.01 0,-29.2 -10.91,-55.84 -28.88,-76.06 -18.18,-20.47 -43.58,-34.38 -72.18,-37.73l1.77 -15.5z"/>
  <path class="fil0" d="M81.47 193.26c-2.53,-7.03 -4.47,-14.29 -5.76,-21.68 -1.27,-7.31 -1.93,-14.8 -1.93,-22.4 0,-17.54 3.5,-34.32 9.84,-49.66 6.57,-15.91 16.2,-30.23 28.15,-42.22l11.05 10.99c-10.53,10.57 -19.01,23.18 -24.79,37.15 -5.55,13.44 -8.62,28.21 -8.62,43.74 0,6.77 0.58,13.38 1.69,19.77 1.15,6.63 2.85,13 5.02,19.06l-14.65 5.25z"/>
  <polygon class="fil0" points="313.34,287.93 297.72,287.93 297.72,272.3 313.34,272.3 "/>
  <polygon class="fil0" points="360.21,287.93 344.59,287.93 344.59,272.3 360.21,272.3 "/>
  <polygon class="fil0" points="336.78,295.74 336.78,311.36 321.15,311.36 321.15,295.74 "/>
  <polygon class="fil0" points="336.78,248.87 336.78,264.49 321.15,264.49 321.15,248.87 "/>
  <polygon class="fil0" points="170.43,51.28 154.81,66.9 143.76,55.85 159.39,40.23 "/>
  <polygon class="fil0" points="209.49,12.22 193.87,27.84 182.82,16.79 198.45,1.17 "/>
  <polygon class="fil0" points="193.87,40.23 209.49,55.85 198.45,66.9 182.82,51.28 "/>
  <polygon class="fil0" points="154.81,1.17 170.43,16.79 159.39,27.84 143.76,12.22 "/>
  <path class="fil0" d="M271.81 308.77c-10.51,4.47 -21.62,7.95 -33.19,10.3 -11.3,2.29 -22.89,3.5 -34.65,3.5 -6.3,0 -12.64,-0.35 -18.98,-1.04 -6.28,-0.68 -12.52,-1.72 -18.69,-3.09 -5.23,-1.16 -10.34,-2.54 -15.3,-4.14 -5.1,-1.63 -10.06,-3.48 -14.87,-5.53l6.1 -14.35c4.44,1.89 8.96,3.57 13.53,5.04 4.59,1.47 9.23,2.73 13.9,3.77 5.5,1.22 11.17,2.15 16.98,2.79 5.58,0.61 11.37,0.92 17.33,0.92 10.92,0 21.49,-1.08 31.6,-3.13 10.4,-2.11 20.49,-5.28 30.13,-9.38l6.1 14.35z"/>
  <polygon class="fil0" points="178.25,149.6 209.49,180.85 198.45,191.9 167.2,160.64 "/>
  <path class="fil0" d="M57.59 237.37c-8.22,-13.34 -14.67,-27.86 -19.02,-43.23 -4.21,-14.92 -6.47,-30.63 -6.47,-46.82l15.63 0c0,14.81 2.04,29.1 5.86,42.61 3.96,14.01 9.81,27.19 17.25,39.26l-13.25 8.18z"/>
  <path class="fil0" d="M41.9 90.02c6.65,-18.82 16.51,-36.16 28.9,-51.33 12.52,-15.34 27.61,-28.46 44.6,-38.7l8.06 13.37c-15.49,9.33 -29.22,21.26 -40.57,35.16 -11.26,13.79 -20.22,29.55 -26.28,46.69l-14.71 -5.19z"/>
  <polygon class="fil0" points="149.29,92.62 149.29,108.25 133.66,108.25 133.66,92.62 "/>
  <polygon class="fil0" points="149.29,123.87 149.29,139.5 133.66,139.5 133.66,123.87 "/>
  <polygon class="fil0" points="133.66,123.88 118.04,123.88 118.04,108.25 133.66,108.25 "/>
  <polygon class="fil0" points="164.91,123.88 149.29,123.88 149.29,108.25 164.91,108.25 "/>
 </g>
</svg>
