<?xml version="1.0" encoding="UTF-8"?>
<!DOCTYPE svg PUBLIC "-//W3C//DTD SVG 1.1//EN" "http://www.w3.org/Graphics/SVG/1.1/DTD/svg11.dtd">
<!-- Creator: CorelDRAW 2017 -->
<svg xmlns="http://www.w3.org/2000/svg" xml:space="preserve" width="16.829mm" height="16.6394mm" version="1.1" style="shape-rendering:geometricPrecision; text-rendering:geometricPrecision; image-rendering:optimizeQuality; fill-rule:evenodd; clip-rule:evenodd"
viewBox="0 0 296.69 293.35"
 xmlns:xlink="http://www.w3.org/1999/xlink">
 <defs>
  <style type="text/css">
   <![CDATA[
    .fil0 {fill:#5B5857;fill-rule:nonzero}
   ]]>
  </style>
 </defs>
 <g id="Слой_x0020_1">
  <metadata id="CorelCorpID_0Corel-Layer"/>
  <polygon class="fil0" points="120.74,266.03 93.42,293.35 84.63,284.56 111.95,257.24 "/>
  <polygon class="fil0" points="95.87,247.37 58.55,284.69 49.76,275.89 87.07,238.58 "/>
  <polygon class="fil0" points="70.99,222.47 55.48,237.98 46.69,229.23 62.19,213.72 "/>
  <polygon class="fil0" points="52.33,203.84 8.79,247.37 -0,238.58 43.54,195.04 "/>
  <polygon class="fil0" points="39.89,185.18 15.01,210.06 6.22,201.26 31.1,176.38 "/>
  <path class="fil0" d="M218.09 94.78c7.11,-11.47 22.09,-18.52 36.26,-25.2 9.48,-4.47 18.58,-8.75 23.36,-13.53l0.03 -0c4.8,-4.8 6.84,-11.2 6.51,-17.59 -0.34,-6.57 -3.15,-13.11 -8.01,-17.99 -5.01,-4.99 -11.75,-7.82 -18.45,-8.05 -6.23,-0.21 -12.44,1.86 -17.15,6.56 -4.78,4.78 -9.07,13.88 -13.53,23.36 -6.68,14.18 -13.72,29.15 -25.2,36.26 -16.78,10.4 -48.31,-7.14 -59.83,-14.27l-41.82 41.82 90.72 90.72 41.81 -41.81c-7.24,-11.63 -25.08,-43.51 -14.69,-60.28zm41.56 -13.98c-12.58,5.92 -25.86,12.18 -31.01,20.49 -8.58,13.84 17.13,50.96 17.2,51.06l2.97 4.27 -57.83 57.83 -108.3 -108.31 57.79 -57.79 4.26 2.9c0.11,0.07 36.86,25.35 50.67,16.79 8.31,-5.15 14.57,-18.43 20.49,-31.01 4.95,-10.51 9.7,-20.6 15.96,-26.86 7.28,-7.28 16.81,-10.48 26.33,-10.16 9.81,0.33 19.61,4.42 26.84,11.65l0.01 0.03c7.06,7.06 11.13,16.57 11.62,26.12 0.5,9.73 -2.68,19.54 -10.14,27.01l0.01 0.02c-6.26,6.26 -16.35,11.01 -26.86,15.96z"/>
  <polygon class="fil0" points="182.94,203.84 128.79,258 39.14,168.35 93.29,114.19 102.08,122.99 56.73,168.35 128.79,240.41 174.14,195.05 "/>
  <path class="fil0" d="M186.58 178.96l-72.81 -72.81 27.46 -27.45 77.21 77.21 -27.45 27.46 -4.4 -4.4zm-55.22 -72.81l59.62 59.62 9.86 -9.87 -59.62 -59.62 -9.87 9.86z"/>
  <polygon class="fil0" points="105.73,226.14 130.61,201.26 139.4,210.06 114.52,234.93 "/>
  <polygon class="fil0" points="62.19,176.38 80.85,157.72 89.65,166.52 70.99,185.18 "/>
  <polygon class="fil0" points="80.85,195.04 93.29,182.6 102.08,191.4 89.65,203.84 "/>
  <polygon class="fil0" points="270.01,35.91 257.57,48.35 248.78,39.55 261.22,27.12 "/>
 </g>
</svg>
